<svg height="512pt" viewBox="0 0 512 512" width="512pt" xmlns="http://www.w3.org/2000/svg"><path d="m503.464844 494.933594h-76.796875v-324.265625c0-94.257813-76.410157-170.667969-170.667969-170.667969s-170.667969 76.410156-170.667969 170.667969v324.265625h-76.796875c-4.714844 0-8.535156 3.820312-8.535156 8.53125 0 4.714844 3.820312 8.535156 8.535156 8.535156h494.929688c4.714844 0 8.535156-3.820312 8.535156-8.535156 0-4.710938-3.820312-8.53125-8.535156-8.53125zm-149.5625-392.535156h-89.367188v-50.761719c35.921875 2.570312 68.761719 21.222656 89.367188 50.761719zm-106.4375 213.335937h-110.929688v-17.066406h110.929688zm17.070312-17.066406h110.929688v17.066406h-110.929688zm0-17.066407v-162.136718h99.242188c7.675781 15.980468 11.667968 33.476562 11.6875 51.203125v110.933593zm-17.070312-179.203124h-89.367188c20.605469-29.539063 53.445313-48.191407 89.367188-50.761719zm-110.929688 68.269531c.019532-17.726563 4.011719-35.222657 11.6875-51.203125h99.242188v162.136718h-110.929688zm0 162.132812h110.929688v162.132813h-110.929688zm128 162.132813v-162.132813h110.929688v162.132813zm128 0v-324.265625c0-21.925781-5.320312-43.523438-15.5-62.941407 0-.09375-.09375-.179687-.136718-.285156-23.488282-45.054687-70.085938-73.308594-120.898438-73.308594s-97.410156 28.253907-120.898438 73.308594c-.042968.105469-.09375.191406-.136718.285156-10.179688 19.417969-15.5 41.015626-15.5 62.941407v324.265625h-17.066406v-324.265625c0-84.832031 68.769531-153.601563 153.601562-153.601563s153.601562 68.769532 153.601562 153.601563v324.265625zm0 0"/><path d="m192 136.535156c-21.199219.023438-38.375 17.199219-38.398438 38.398438v81.066406c0 4.710938 3.820313 8.535156 8.53125 8.535156h59.734376c4.710937 0 8.53125-3.824218 8.53125-8.535156v-81.066406c-.023438-21.199219-17.199219-38.375-38.398438-38.398438zm21.332031 110.929688h-42.664062v-72.53125c0-11.78125 9.550781-21.332032 21.332031-21.332032s21.332031 9.550782 21.332031 21.332032zm0 0"/><path d="m192 349.867188c-21.199219.023437-38.375 17.203124-38.398438 38.398437v81.066406c0 4.714844 3.820313 8.535157 8.53125 8.535157h59.734376c4.710937 0 8.53125-3.820313 8.53125-8.535157v-81.066406c-.023438-21.195313-17.199219-38.375-38.398438-38.398437zm21.332031 110.933593h-42.664062v-72.535156c0-11.78125 9.550781-21.332031 21.332031-21.332031s21.332031 9.550781 21.332031 21.332031zm0 0"/><path d="m320 136.535156c-21.199219.023438-38.375 17.199219-38.398438 38.398438v81.066406c0 4.710938 3.820313 8.535156 8.53125 8.535156h59.734376c4.710937 0 8.53125-3.824218 8.53125-8.535156v-81.066406c-.023438-21.199219-17.199219-38.375-38.398438-38.398438zm21.332031 110.929688h-42.664062v-72.53125c0-11.78125 9.550781-21.332032 21.332031-21.332032s21.332031 9.550782 21.332031 21.332032zm0 0"/><path d="m320 349.867188c-21.199219.023437-38.375 17.203124-38.398438 38.398437v81.066406c0 4.714844 3.820313 8.535157 8.53125 8.535157h59.734376c4.710937 0 8.53125-3.820313 8.53125-8.535157v-81.066406c-.023438-21.195313-17.199219-38.375-38.398438-38.398437zm21.332031 110.933593h-42.664062v-72.535156c0-11.78125 9.550781-21.332031 21.332031-21.332031s21.332031 9.550781 21.332031 21.332031zm0 0"/></svg>