<svg xmlns="http://www.w3.org/2000/svg" viewBox="0 0 638.84 568.82"><title>keep family connected</title><g id="bg"><path d="M7.8,186.25c15.84-25.31,50.42-21.1,73.86-10.9,14.06,6.13,27.21,14.17,41.33,20.17a167.89,167.89,0,0,0,43.26,11.8,170.31,170.31,0,0,0,50.15-.83c.95-.15.55-1.6-.4-1.44a168.76,168.76,0,0,1-99.52-14.11c-24.87-11.82-49.91-29.08-78.84-24.53-12.6,2-24.25,8.08-31.13,19.08-.51.82.78,1.58,1.29.76Z" transform="translate(3.07 -31.68)" fill="#e8e8e8"/><path d="M160.46,159c39.5,20.88,85.5,23.54,128.93,16.11,23.71-4.05,46.31-11.7,69.09-19.21,24.22-8,48.62-14.08,74.21-15.23a233,233,0,0,1,84.59,12c.92.31,1.31-1.14.4-1.45-45.89-15.44-95.12-15.93-141.53-2.44-23.58,6.85-46.44,16-70.41,21.51-22.62,5.22-45.93,7.93-69.16,6.93-26.23-1.13-52.08-7.22-75.36-19.53-.85-.45-1.61.85-.76,1.3Z" transform="translate(3.07 -31.68)" fill="#e8e8e8"/><path d="M315.1,122.17c21.27.22,41.17-7.89,61.7-12.25a226.89,226.89,0,0,1,66.07-4.15c43.21,3.61,83,22.48,125.81,28.3,22.37,3.05,45.37,2.33,66.58-6,.89-.35.5-1.8-.4-1.45-40.43,15.91-83.81,3.75-123.64-7.75-20-5.78-40.13-11.42-60.88-13.85a228.71,228.71,0,0,0-62.87,1.4c-24.21,3.89-47.6,14.51-72.37,14.26a.75.75,0,0,0,0,1.5Z" transform="translate(3.07 -31.68)" fill="#e8e8e8"/><path d="M35.67,66.68c65.13-26,128.65,21.66,191.86,30.89,17.26,2.52,34.8,2.36,51.73-2.1a.75.75,0,0,0-.4-1.45c-67.2,17.71-127.61-31.3-193.06-35.87-17.19-1.19-34.46.68-50.53,7.08-.89.35-.5,1.8.4,1.45Z" transform="translate(3.07 -31.68)" fill="#e8e8e8"/><path d="M231.59,55c35.58,14.74,75.12,9.88,111.54,1,41.08-10,81.14-24.15,124-22.74,24.5.8,48.67,5.32,72.61,10.24,1,.19,1.35-1.26.4-1.45-20.31-4.17-40.74-8.05-61.44-9.65a232.37,232.37,0,0,0-61,3.35c-40.49,7.58-79.27,23.34-120.58,26.6-22.15,1.75-44.54-.24-65.21-8.8-.89-.37-1.28,1.08-.39,1.45Z" transform="translate(3.07 -31.68)" fill="#e8e8e8"/><path d="M425.38,73.18c20.36,8.26,40.7,17.49,61.71,24s42.05,4.54,63.41,1.92c.94-.11,1-1.61,0-1.5-21.92,2.68-43.37,4.48-64.73-2.41-20.38-6.58-40.16-15.4-60-23.45-.89-.36-1.28,1.09-.4,1.45Z" transform="translate(3.07 -31.68)" fill="#e8e8e8"/></g><g id="Layer_21" data-name="Layer 21"><path d="M255.09,260.85l251.82,52.52V505.22l69.91-69.91V248.16l-221-37.59Z" transform="translate(3.07 -31.68)" fill="#fff" stroke="#000" stroke-miterlimit="10"/><path d="M255.09,260.85Q259,352.32,263,443.78l244,61.44V313.37Z" transform="translate(3.07 -31.68)" fill="#fff" stroke="#000" stroke-miterlimit="10"/><path d="M386.24,252.16a7.84,7.84,0,0,1-15.67,0c.13-3,2.55-6.33,5.42-6.56a4.71,4.71,0,0,1,2.33.46,5.44,5.44,0,0,1,2.8-.31C384,246.25,386.11,249.37,386.24,252.16Z" transform="translate(3.07 -31.68)" fill="#ec615b"/><path d="M400.64,248.58a2.75,2.75,0,0,1,.52,1.8c-.2,1.89-2.91,3.31-5.15,3.18-2.41-.15-5.24-2.14-5.24-5.24a5.44,5.44,0,0,1,5.24-5.23c2.53-.09,5.23,1.87,5.23,3.86A2.7,2.7,0,0,1,400.64,248.58Z" transform="translate(3.07 -31.68)" fill="#ec615b"/><path d="M398,266.85l88.21,18,44.37-32.26-88.61-15.21Z" transform="translate(3.07 -31.68)" fill="#fff" stroke="#000" stroke-miterlimit="10"/><ellipse cx="478.06" cy="205.97" rx="4.7" ry="6.85" fill="#fff" stroke="#000" stroke-miterlimit="10"/><ellipse cx="478.06" cy="205.97" rx="2.17" ry="4.02" fill="#fff" stroke="#000" stroke-miterlimit="10"/><line x1="445.01" y1="205.66" x2="445.04" y2="233.05" fill="none" stroke="#000" stroke-miterlimit="10"/><line x1="445.04" y1="233.05" x2="503.03" y2="243.11" fill="none" stroke="#000" stroke-miterlimit="10"/><line x1="432.04" y1="241.17" x2="445.04" y2="233.05" fill="none" stroke="#000" stroke-miterlimit="10"/><path d="M466.51,214.28a3.08,3.08,0,0,0,1.94,1.76,3.14,3.14,0,0,0,3.41-1.44q2.83-9.32,4.52-9.11,3.3.39,2.25,37.13a2.43,2.43,0,0,0,1.69,1.31,2.39,2.39,0,0,0,2.49-1.51,121.75,121.75,0,0,0-.09-25.93c-.85-7.74-1.79-16.19-5-16.84C473.37,198.78,467.43,212.17,466.51,214.28Z" transform="translate(3.07 -31.68)" fill="#fff" stroke="#000" stroke-miterlimit="10"/><path d="M471.22,214.81c0,.48-1.16,1-2.21,1s-2.27-.65-2.23-1.13,1.23-.76,2.1-.77C469.91,213.91,471.2,214.32,471.22,214.81Z" transform="translate(3.07 -31.68)" fill="#fff" stroke="#000" stroke-miterlimit="10"/><ellipse cx="488.9" cy="208.8" rx="4.7" ry="6.85" fill="#fff" stroke="#000" stroke-miterlimit="10"/><ellipse cx="488.9" cy="208.8" rx="2.17" ry="4.02" fill="#fff" stroke="#000" stroke-miterlimit="10"/><path d="M255.09,260.85l251.82,52.52,69.91-65.21V435.31l-69.91,69.91L263,443.78Q259,352.31,255.09,260.85Z" transform="translate(3.07 -31.68)" fill="#9e9e9e" opacity="0.16"/><path d="M506.91,313.37l69.91-65.21V435.31Z" transform="translate(3.07 -31.68)" fill="#9e9e9e" opacity="0.1"/><path d="M398,266.85l44-29.51,28.9,5a5.12,5.12,0,0,0,4.14,2.2,5,5,0,0,0,3.65-1.88,7.65,7.65,0,0,0,4.75,3.7,7.55,7.55,0,0,0,5.69-.89l41.48,7.12-44.37,32.26Z" transform="translate(3.07 -31.68)" fill="#9e9e9e" opacity="0.29"/><path d="M441.94,237.34l-.3,28,58.28,9.43,30.63-22.23Z" transform="translate(3.07 -31.68)" fill="#9e9e9e" opacity="0.21"/></g><g id="girl"><g id="leg_left" data-name="leg left"><path d="M294.19,264.14c-.81,3.21-1.87,7.81-2.84,13.37-.77,4.4-3.71,22.22-2.1,48.63,2.34,38,13.18,78.28,15.82,87.85l39.22,10.1a163.95,163.95,0,0,1-8.94-48.56c-1.31-28.82,4.45-58.77,6.21-67.45,5.34-16.67-.77-34.22-14-42.48C312.5,256.16,295.58,263.51,294.19,264.14Z" transform="translate(3.07 -31.68)" fill="#fff"/><path d="M288.84,305.33c1,6.22,2.31,12.63,3.94,19.19,10.7,42.83,31.86,76,51.51,99.57L305.07,414A392.84,392.84,0,0,1,291.3,346.3,388.15,388.15,0,0,1,288.84,305.33Z" transform="translate(3.07 -31.68)" fill="#9e9e9e" opacity="0.29"/><path d="M294.42,260.42c-14.1,51-2,103.63,9.93,153.77.22.94,1.67.54,1.44-.4-11.9-49.89-24-102.18-9.92-153a.75.75,0,0,0-1.45-.4Z" transform="translate(3.07 -31.68)"/><path d="M339.49,323.07a190.72,190.72,0,0,0,4.08,101.22c.29.92,1.74.52,1.44-.4a189.37,189.37,0,0,1-4.08-100.42c.22-.94-1.23-1.34-1.44-.4Z" transform="translate(3.07 -31.68)"/></g><g id="leg_right" data-name="leg right"><path d="M312.52,266.15c-4.2,5.16-6.39,13-6.58,13.7a43.25,43.25,0,0,0-.87,18.6l8.85,12q2.43,6.51,4.88,13,19.13,50.87,38.91,100.59l40,7q-3.4-13.23-6.78-26.46-18.66-73-36.52-146.19C337.1,253.8,320.35,256.5,312.52,266.15Z" transform="translate(3.07 -31.68)" fill="#fff"/><path d="M313.92,310.47q8.37,11.14,16.68,22.82a1080.94,1080.94,0,0,1,60.57,95.37l-33.46-4.57Q335.81,367.29,313.92,310.47Z" transform="translate(3.07 -31.68)" fill="#9e9e9e" opacity="0.25"/><path d="M357.81,273.05q18.12,78.9,39.14,157.09a.75.75,0,0,0,1.45-.4q-21-78.18-39.15-157.09c-.21-.94-1.66-.54-1.44.4Z" transform="translate(3.07 -31.68)"/><path d="M304.54,299q5.2,6.06,9.83,12.57c.55.78,1.85,0,1.29-.76q-4.74-6.66-10.06-12.87c-.63-.74-1.68.33-1.06,1.06Z" transform="translate(3.07 -31.68)"/><path d="M313.2,310.67q21.29,57,43.78,113.62c.36.89,1.81.5,1.45-.4q-22.5-56.58-43.78-113.61c-.34-.9-1.79-.51-1.45.39Z" transform="translate(3.07 -31.68)"/></g><g id="hand_left" data-name="hand left"><path d="M371.65,190.34a17.54,17.54,0,0,1,5.41-2.48,19.39,19.39,0,0,1,13.1,1.4l9.5-4.18a9.33,9.33,0,0,1,2-4.53,10.39,10.39,0,0,1,5.56-3.16c9.13-2.55,8.05-4.11,18.15-6.45a35.25,35.25,0,0,1,12.53-1.08c4.2.5,5.62,1.6,6.25,2.79a5,5,0,0,1,.18,3.65c-5.06,2.92-10.62,5.85-16.68,8.67a213.06,213.06,0,0,1-25.8,10l-.45-3.8-7.52,4.45a5.92,5.92,0,0,1,.34,4.34c-.46,1.2-1.27,1.71-5,3.82-4.65,2.62-6.37,3.52-8.91,3.71a5.11,5.11,0,0,1-2.74-.5c-1.15-.52-2.41-1.56-3.68-4.35A29.6,29.6,0,0,1,371.65,190.34Z" transform="translate(3.07 -31.68)" fill="#fff"/><path d="M432.71,169.75a72.32,72.32,0,0,1-8,7c-8.88,6.66-16.06,8.81-27.55,13.72-5.05,2.15-12.27,5.41-20.88,9.95.57,1.17,1.14,2.34,1.7,3.52-.15.29-1.17,2.24-.44,3.07.53.6,1.73.31,3.36-.16,4.29-1.23,6.44-1.84,7.61-2.59a17.24,17.24,0,0,0,6.95-9.79l5.59-2.93c.27,1.15.53,2.3.8,3.45,2.23-.66,5.7-1.76,9.86-3.38,6-2.32,9.55-4.23,19.43-9.16,3-1.5,7.64-3.8,13.42-6.62a8,8,0,0,0-1.92-4C440.36,169.32,436.5,168.56,432.71,169.75Z" transform="translate(3.07 -31.68)" fill="#9e9e9e" opacity="0.19"/><path d="M372,191a20,20,0,0,1,9.69-3.24c.93,0,11.14,1.1,6.45,3.87-.65.38-3.15-.3-4.1-.27a7.73,7.73,0,0,0-2.38.26c-.32.12-.51.42-.78.59a4.68,4.68,0,0,1-2.43,2.51,11.64,11.64,0,0,1-3.28.13c-1-.05-1,1.46,0,1.5,1.83.1,3.91.18,5.43-1s1.31-2.16,3.44-2.46c2-.29,8.34,2.4,8-1.82-.29-3.28-5.39-4.43-7.86-4.7a20.5,20.5,0,0,0-12.9,3.37c-.82.51-.07,1.8.76,1.29Z" transform="translate(3.07 -31.68)"/><path d="M393.93,200.4c.84-1.26,2.1-5.57-.53-5.75-1.18-.08-2.06,1-2.72,1.83a20.48,20.48,0,0,0-2.41,3.75c-.44.86.86,1.62,1.29.75a18.44,18.44,0,0,1,2.76-4.12c.19-.22.68-.86,1-.6.17.13.1.82.09,1a4.53,4.53,0,0,1-.81,2.38c-.54.8.76,1.56,1.29.75Z" transform="translate(3.07 -31.68)"/><path d="M378.18,206.53a14.6,14.6,0,0,1,2.84-3.69c.35-.33,1.26-1.35,1.76-1.37.09-.28.13-.25.13.1s.07.51.1.77c.07.49.13,1,.19,1.46.12.95,1.62,1,1.5,0s0-2.67-.68-3.51-1.49-.44-2.16,0a15.23,15.23,0,0,0-5,5.49c-.47.85.83,1.61,1.29.76Z" transform="translate(3.07 -31.68)"/><path d="M384.9,203.62a7.25,7.25,0,0,1,5.38-4.24c.94-.18.54-1.62-.4-1.45a8.61,8.61,0,0,0-6.27,4.93c-.39.87.9,1.64,1.29.76Z" transform="translate(3.07 -31.68)"/><path d="M377.32,207.72c6,2.18,12.89-3.08,16.63-7.33.63-.72-.42-1.79-1.06-1.06-3.36,3.81-9.73,8.91-15.17,6.94-.91-.33-1.3,1.12-.4,1.45Z" transform="translate(3.07 -31.68)"/><path d="M375.25,196a6.84,6.84,0,0,0,2.78,8.84.75.75,0,0,0,.75-1.29,5.33,5.33,0,0,1-2.23-6.79c.41-.87-.89-1.63-1.3-.76Z" transform="translate(3.07 -31.68)"/><path d="M391.25,189.4l8.08-3.18c.89-.35.5-1.8-.4-1.44L390.85,188c-.89.35-.5,1.8.4,1.45Z" transform="translate(3.07 -31.68)"/><path d="M394.28,196l7.55-4.23c.85-.47.09-1.77-.75-1.3l-7.56,4.24c-.84.47-.09,1.76.76,1.29Z" transform="translate(3.07 -31.68)"/><path d="M400.82,191.51l.26,3.47c.07,1,1.57,1,1.5,0l-.26-3.47c-.07-1-1.57-1-1.5,0Z" transform="translate(3.07 -31.68)"/><path d="M402.12,195.5Q423.72,187,444.69,177c.87-.42.11-1.71-.76-1.29q-20.79,9.92-42.21,18.39c-.89.35-.5,1.81.4,1.45Z" transform="translate(3.07 -31.68)"/><path d="M401.1,185.4c-1.54-6.82,13.95-10.58,18.72-12.13,5.1-1.66,23-7,24,2.55.1,1,1.61,1,1.5,0-1.1-10.4-16.88-6.61-23.32-4.77a107,107,0,0,0-17.26,6.6c-3.41,1.67-6,4.14-5,8.15.21.94,1.65.54,1.44-.4Z" transform="translate(3.07 -31.68)"/><path d="M399.75,186a4.15,4.15,0,0,1,.63,5.2c-.5.82.8,1.58,1.3.75a5.68,5.68,0,0,0-.87-7c-.68-.68-1.75.38-1.06,1.06Z" transform="translate(3.07 -31.68)"/></g><g id="torso"><path d="M296.6,140.12a159.05,159.05,0,0,0,6.74,85.71l-11.77,36.85a74.56,74.56,0,0,0,69.52,3c-.92-7.88-2-19.53-2.55-33.69-1.61-45.71,5.41-60.86-3.44-74.36C348.84,148.07,334.15,138.59,296.6,140.12Z" transform="translate(3.07 -31.68)" fill="#ec615b"/></g><g id="hand_right" data-name="hand right"><path d="M342.68,162.3a30.46,30.46,0,0,0-2.59,7.64c-1.3,6.74.07,12.27,1.3,16.62a178.16,178.16,0,0,0,11.94,30.6,202.58,202.58,0,0,0,12.88,21.35,12.24,12.24,0,0,0,5.41,2.48c3.58.62,6.53-.67,8.74-1.72A102.52,102.52,0,0,0,394.72,231a114.77,114.77,0,0,1,17.81-10.46A96.54,96.54,0,0,0,424,222.2c10,.8,21.71.2,21.84-1.34.05-.54-1.33-1.44-8.17-3a25,25,0,0,0,10.43-2.57c2.51-1.24,7.64-4.34,7.12-6.19-.33-1.17-3-2.22-14-1.32,7.87-3.37,9.34-4.71,9.17-5.29-.34-1.2-8-1.05-15,1.25a53.41,53.41,0,0,1-9,2.69c-.89.16-7.05,1.26-7.63-.22-.33-.86,1.59-1.64,2.24-4.26.43-1.7.26-3.88-.67-4.26s-2,.83-2.84,1.63a66.16,66.16,0,0,0-7.47,9.58c-2,2.64-6.37,4.27-15.2,7.55-3.6,1.34-8.47,3-14.38,4.55a231.85,231.85,0,0,1-7.42-25c-2.35-9.93-4.86-23.54-12.52-32.66a12.23,12.23,0,0,0-6.65-4.49C348.71,157.7,344,161.23,342.68,162.3Z" transform="translate(3.07 -31.68)" fill="#fff"/><path d="M349.5,158.89c2.69,1.54.46,8.11-.21,16.07-1.55,18.52,6.44,32,16.8,49.56,1.79,3,3.81,6.14,7.4,7.25,5.88,1.8,10.9-3.3,18.61-7.74,6.68-3.85,16.75-5.86,36.88-9.88,7-1.39,16-3,26.8-4.18a12.43,12.43,0,0,1-2.58,3.38c-5.6,5.14-14.8,3.51-14.85,4.34s6.89,1.22,7,2.51c.06,1.11-5.07,2.24-5.65,2.37-5,1.06-13.54,1.76-27.13-2-2.7,1.94-6,4.29-9.89,6.92-15.58,10.6-20.06,12.32-24.76,12.83a28.8,28.8,0,0,1-10.15-.73c.44.33,1,.68,1.06.58.3-.3-3.76-4.39-7.1-8.72-3.84-5-5.86-9.1-9.48-16.54-2.67-5.47-4.34-9.7-5.7-13.16-3.17-8.06-4.75-12.09-5.7-17.34-.6-3.3-.61-7.15-.64-14.84,0-3,.05-5,1.38-7C343.47,159.75,347.5,157.76,349.5,158.89Z" transform="translate(3.07 -31.68)" fill="#9e9e9e" opacity="0.29"/><path d="M339.76,167.6c-2.45,12.58,2.13,25.71,6.92,37.21,5.17,12.43,12.09,24,19.72,35.05.54.79,1.84,0,1.29-.76a196.2,196.2,0,0,1-18.23-31.6c-5.31-12-10.83-26.26-8.25-39.5.18-.94-1.26-1.35-1.45-.4Z" transform="translate(3.07 -31.68)"/><path d="M353.77,159.6c11.31,4,14.68,19.74,17.11,30a301.9,301.9,0,0,0,9.67,33.61c.32.9,1.77.51,1.45-.4-4.77-13.2-7.6-26.71-11.33-40.19-2.52-9.15-6.69-21-16.5-24.5-.91-.32-1.3,1.13-.4,1.45Z" transform="translate(3.07 -31.68)"/><path d="M381.3,221.15a112.87,112.87,0,0,0,28.08-10.26c.85-.45.1-1.74-.76-1.29a111.82,111.82,0,0,1-27.72,10.11c-.95.2-.55,1.65.4,1.44Z" transform="translate(3.07 -31.68)"/><path d="M367.36,240.24c6.66,3.55,13,.07,18.93-3.39,8.64-5.07,17.91-9.69,25.81-15.88.76-.59-.3-1.65-1.06-1.06-6.25,4.9-13.51,8.59-20.34,12.61-6.52,3.83-14.8,10.57-22.59,6.42-.85-.45-1.61.84-.75,1.3Z" transform="translate(3.07 -31.68)"/><path d="M409.46,210.9c2.35-2.7,4.2-5.76,6.44-8.54.82-1,2.59-3.68,3.89-3.88,2.26-.34,1.16,1.58.88,2.48-.46,1.46-1,2.9-1.6,4.31-.38.88.92,1.65,1.29.76.65-1.54,5-11.69-.64-9.24-2.21,1-4,3.39-5.44,5.23-2,2.58-3.73,5.35-5.88,7.82-.64.72.42,1.79,1.06,1.06Z" transform="translate(3.07 -31.68)"/><path d="M419.82,206.93c5.88,1.12,10.94-.88,16.45-2.77,1.78-.61,11.25-3.84,12.38-1.5.5,1-6.78,3.22-8.13,3.72-.9.33-.51,1.78.4,1.45,2.94-1.09,8.62-1.86,10.2-4.94a.77.77,0,0,0-.45-1.1c-10.63-3.8-19.84,5.71-30.46,3.69-.94-.17-1.34,1.27-.39,1.45Z" transform="translate(3.07 -31.68)"/><path d="M411.49,221.13a129.41,129.41,0,0,0,17.56,2.18c4.71.24,10.81,1,15.34-.74,1.32-.5,3.25-1.67,2.35-3.41-1.17-2.27-7.82-2.13-9.88-2.49-.95-.17-1.35,1.28-.4,1.44.73.13,7.92,1.32,7.92,1.39-.18,1.69-5.46,2.37-6.71,2.42-1.58.07-3.16.06-4.73,0a126.07,126.07,0,0,1-21.05-2.26c-.95-.18-1.35,1.26-.4,1.44Z" transform="translate(3.07 -31.68)"/><path d="M440.48,207.8a32.68,32.68,0,0,0,6.71.26,16.64,16.64,0,0,1,4.77.42q4,.3,1.1,4.09a8.21,8.21,0,0,1-1.74.84,47.15,47.15,0,0,1-6.85,2.31c-2.65.68-5.19-.08-7.84.43-.94.18-.54,1.62.4,1.44,2-.38,3.8.24,5.76,0a31.86,31.86,0,0,0,6.57-1.92c2.36-.78,5.61-1.71,6.77-4.18,3-6.31-13.07-4.76-15.25-5.18-.94-.18-1.35,1.27-.4,1.45Z" transform="translate(3.07 -31.68)"/><path d="M436.13,213.83a67.46,67.46,0,0,0,17-3.25c.91-.3.52-1.75-.4-1.44a65.65,65.65,0,0,1-16.59,3.19c-1,.06-1,1.56,0,1.5Z" transform="translate(3.07 -31.68)"/></g><g id="head"><path d="M376.79,98.7a54.66,54.66,0,0,1-1.29,7.4,55.3,55.3,0,0,1-5.5,14,43.53,43.53,0,0,1-11.22,13.55c-3.87,3-7.13,5.59-11.78,5.5a15.22,15.22,0,0,1-9.74-4.25l-6.21,11.59-10.56-3.31,9.59-15.89a24.54,24.54,0,0,1-2.33-5.79,25.06,25.06,0,0,1-.37-10.66,8.42,8.42,0,0,1-4.19-1,8.9,8.9,0,0,1-3.8-4.22,9.53,9.53,0,0,1-1-5.26c.46-3.94,3.63-6.85,6.71-8,1.3-.47,3.91-1.42,6.15,0a6.18,6.18,0,0,1,2.48,4.34c.44-.63,8.42-11.74,22.35-11C369.63,86.62,376.33,97.89,376.79,98.7Z" transform="translate(3.07 -31.68)" fill="#fff"/><path d="M334.75,95.54a21.9,21.9,0,0,1,9.31-6.41,51.25,51.25,0,0,0-3.19,9.24c-3.82,15.9-.57,36.21,7.73,38.48,1.55.43,4,.43,7.79-2.09a14.53,14.53,0,0,1-8.13,4.36,14.92,14.92,0,0,1-11.4-3.14q-4.53,9.84-6.44,9.36-2.46-.63-.58-18.44A24.17,24.17,0,0,1,327.41,111a9.76,9.76,0,0,1-4.37-1c-.49-.24-4.61-2.34-5.2-6.67a9.09,9.09,0,0,1,1.42-5.81,10.56,10.56,0,0,1,6.52-5.36c1-.23,4.26-1,6.4,1.07a5.67,5.67,0,0,1,1.57,3.58C334.06,96.42,334.39,96,334.75,95.54Z" transform="translate(3.07 -31.68)" fill="#9e9e9e" opacity="0.24"/><path d="M368,84.16c-.05,2.91-2.17,5-3.15,6-8,8-27.66,6.81-31.13,6.56-.08-.22-1.73-4.24-5.66-4.87s-6.55,2.62-7.21,3.41a9.84,9.84,0,0,0-1.45,10.37c2.24,4.7,7.43,5.34,7.74,5.37a20.79,20.79,0,0,0,.07,7.64c.91,4.48,2.86,6,3.81,10.18a20,20,0,0,1-.29,9.5c-2.39,9.9-11.4,14.86-12,15.2-11.11,5.9-26.58,1.82-33.54-8.31-5.4-7.87-4-16.91-3.73-18.35,2-11.68,10.65-13.44,24.37-30.68,12-15.06,9.46-18.8,17.49-23.5,13.26-7.77,30.15-3.39,38.41,2.58C363.66,76.7,368.07,79.89,368,84.16Z" transform="translate(3.07 -31.68)" fill="#461eb8"/><path d="M364.84,90.18c3,2.77,5.2,2.91,7.74,6a17,17,0,0,1,3.33,7.11,52.77,52.77,0,0,1-3,10.8A49.74,49.74,0,0,1,363,129.88c-4.41,4.62-7.81,8.19-13.39,9.05-5.83.9-10.67-1.68-12.72-3-1.2,1-5.69,4.83-5.27,9.52.59,6.5,10.93,9.4,15.19,10.62,3.52,1,10.25,2.82,18,.06a27.49,27.49,0,0,0,12.85-9.78c3.33-4.58,4.9-9.73,4-36.91-.77-22-2.07-26.28-5.73-29.14-5.54-4.32-14.81-4.09-16.47-1.06C358,81.87,361.66,87.28,364.84,90.18Z" transform="translate(3.07 -31.68)" fill="#461eb8"/><path d="M347.7,112.27A8,8,0,0,0,354,122.51c.94.17,1.35-1.27.4-1.44a6.52,6.52,0,0,1-5.29-8.4.75.75,0,0,0-1.45-.4Z" transform="translate(3.07 -31.68)"/><path d="M326.69,110.83a25,25,0,0,0,19.23,28.84c.94.22,1.34-1.23.4-1.45a23.51,23.51,0,0,1-18.18-27c.15-.94-1.3-1.35-1.45-.39Z" transform="translate(3.07 -31.68)"/><path d="M347,139.92c7.89-.8,15.29-8.45,20-14.3a43.91,43.91,0,0,0,9.65-22.31c.11-1-1.39-1-1.5,0A42.25,42.25,0,0,1,366,124.56c-4.4,5.48-11.61,13.12-18.95,13.86-.95.09-1,1.6,0,1.5Z" transform="translate(3.07 -31.68)"/><path d="M364.76,97.66a134.58,134.58,0,0,1-2.22,13.52c-.11.54-1.12,6-1.46,6-.73,0-2.42-3.78-2.72-4.37-.45-.86-1.74-.1-1.3.76.79,1.54,3,7,5.26,4.54.63-.68.76-2.66,1-3.53q.72-3,1.32-6c.7-3.61,1.22-7.24,1.64-10.89.11-1-1.39-1-1.5,0Z" transform="translate(3.07 -31.68)"/><ellipse cx="352.54" cy="100.92" rx="3.26" ry="1.15" transform="translate(167.79 384.19) rotate(-75.16)"/><ellipse cx="368.97" cy="107.31" rx="3.26" ry="1.15" transform="translate(173.84 404.82) rotate(-75.16)"/><path d="M336.21,135.6l-4.73,7.89c-.5.83.8,1.58,1.3.76l4.72-7.9a.75.75,0,0,0-1.29-.75Z" transform="translate(3.07 -31.68)"/><path d="M327.18,110.14c-3.05,1.24-6.08-2.73-7.14-4.87a7.38,7.38,0,0,1,.43-7.75c2.61-4.22,11.18-8.18,12.52-.58.17.94,1.62.54,1.45-.4a6.45,6.45,0,0,0-6.76-5.42c-3.64.13-6.64,2.69-8.51,5.64a9.12,9.12,0,0,0,.17,10.31c1.68,2.68,4.84,5.9,8.23,4.52.89-.36.5-1.81-.39-1.45Z" transform="translate(3.07 -31.68)"/><path d="M325.18,97.48c3,0,4,3.06,3.21,5.51-.3.92,1.15,1.31,1.44.4,1.1-3.4-.74-7.4-4.65-7.41a.75.75,0,0,0,0,1.5Z" transform="translate(3.07 -31.68)"/><path d="M329.55,101.76a3,3,0,0,0-5.36,1.94.75.75,0,0,0,1.5,0,1.53,1.53,0,0,1,2.8-.88c.61.75,1.66-.32,1.06-1.06Z" transform="translate(3.07 -31.68)"/><path d="M350,93.4c2-.64,4.92-1.44,6.16.9.46.85,1.75.09,1.3-.76-1.6-3-5.16-2.44-7.86-1.59-.92.29-.53,1.74.4,1.45Z" transform="translate(3.07 -31.68)"/><path d="M370.05,99.1c2-.74,3.2,1.35,3.47,3,.16,1,1.6.55,1.45-.39-.41-2.49-2.52-5.1-5.32-4.09-.9.33-.51,1.78.4,1.45Z" transform="translate(3.07 -31.68)"/><path d="M345.72,104.91l.15.14c.68.69,1.74-.38,1.06-1.06l-.15-.14c-.68-.69-1.74.37-1.06,1.06Z" transform="translate(3.07 -31.68)"/><path d="M349.86,106.86a.75.75,0,0,0,0-1.5.75.75,0,0,0,0,1.5Z" transform="translate(3.07 -31.68)"/><path d="M347,108.3a.75.75,0,0,0,0-1.5.75.75,0,0,0,0,1.5Z" transform="translate(3.07 -31.68)"/><path d="M367.76,114.08a.75.75,0,0,0,0-1.5.75.75,0,0,0,0,1.5Z" transform="translate(3.07 -31.68)"/><path d="M370.36,114.36a.75.75,0,0,0,0-1.5.75.75,0,0,0,0,1.5Z" transform="translate(3.07 -31.68)"/><path d="M368.48,117a.75.75,0,0,0,0-1.5.75.75,0,0,0,0,1.5Z" transform="translate(3.07 -31.68)"/></g></g><g id="mom"><g id="legs"><path d="M222,389.35c.33-3.66.67-7.31,1-11l5,12.28c1.24.26,2.49.52,3.73.76q18.78,3.69,37.53,7.45c4.54.2,9.07.37,13.61.54-2-11.38-4-21.45-5.71-30-4.52-22.31-7.61-34.53-11.56-47.15-.93-3-1.75-5.47-2.31-7.15L171.9,348.18q-.59,14.1-1.15,28.19C187.91,380.39,204.82,385.44,222,389.35Z" transform="translate(3.07 -31.68)" fill="#fff"/><path d="M259.73,397l9.53,1.9q6.75.3,13.49.54c-1.06-6.51-2.07-12.14-2.94-16.74-4.17-22.1-8.69-39.76-12-52.56-1.43-5.54-2.66-10.12-3.51-13.25l-38,29.94a75.91,75.91,0,0,1,9,7.11C249.59,367.07,256.4,383.55,259.73,397Z" transform="translate(3.07 -31.68)" fill="#9e9e9e" opacity="0.26"/><path d="M214.6,387.59c2.36.57,4.72,1.14,7.09,1.68q.67-5.44,1.34-10.89c-.17-1.67-1-7.38-5.73-11.19-.51-.41-4.7-3.76-6.65-2.49-2.32,1.51.07,8.62,1.94,15.23C213.23,382.16,213.91,384.72,214.6,387.59Z" transform="translate(3.07 -31.68)" fill="#9e9e9e" opacity="0.24"/><path d="M263.4,317.15a701.45,701.45,0,0,1,18.39,81c.15.95,1.6.55,1.44-.4a701.41,701.41,0,0,0-18.38-81,.75.75,0,0,0-1.45.4Z" transform="translate(3.07 -31.68)"/><path d="M209.68,363.7c10.6,4.51,13.22,16.06,17.11,25.79.36.89,1.81.5,1.45-.4-4-10.09-6.83-22-17.8-26.69-.88-.37-1.65.92-.76,1.3Z" transform="translate(3.07 -31.68)"/><path d="M171.15,348.18q-1.12,13.13-1.74,26.29c0,1,1.45,1,1.5,0q.61-13.16,1.74-26.29c.08-1-1.42-.95-1.5,0Z" transform="translate(3.07 -31.68)"/><path d="M222.3,378.18c-.4,3-.78,6-1.12,9-.11,1,1.4.95,1.5,0,.33-2.87.68-5.73,1.07-8.59.13-.94-1.32-1.35-1.45-.4Z" transform="translate(3.07 -31.68)"/></g><g id="tab_le" data-name="tab le"><path d="M-2.57,324.21l465.7,113.18L462.9,600H0Z" transform="translate(3.07 -31.68)" fill="#fff" stroke="#000" stroke-miterlimit="10"/><path d="M463.13,437.39,103.42,600H462.9Z" transform="translate(3.07 -31.68)" fill="#fff" stroke="#000" stroke-miterlimit="10"/><path d="M269.76,413.87a1.5,1.5,0,0,0,0-3,1.5,1.5,0,0,0,0,3Z" transform="translate(3.07 -31.68)" fill="#e8e8e8"/><path d="M20.42,412.14q10.7,6.24,20.87,13.29c.79.55,1.54-.75.75-1.29q-10.17-7.06-20.86-13.29a.75.75,0,0,0-.76,1.29Z" transform="translate(3.07 -31.68)" fill="#e8e8e8"/><path d="M21.29,411.12a5.11,5.11,0,0,1,3.47-1.84c.95-.09,1-1.59,0-1.5a6.58,6.58,0,0,0-4.53,2.28c-.62.72.43,1.79,1.06,1.06Z" transform="translate(3.07 -31.68)" fill="#e8e8e8"/><path d="M42.93,425.46a11.33,11.33,0,0,1,3.32-3.15c.82-.51.07-1.8-.76-1.29a13.4,13.4,0,0,0-3.86,3.68c-.55.8.75,1.55,1.3.76Z" transform="translate(3.07 -31.68)" fill="#e8e8e8"/><path d="M25.67,408.67l19.41,9.92c.86.43,1.62-.86.76-1.3l-19.41-9.91c-.86-.44-1.62.85-.76,1.29Z" transform="translate(3.07 -31.68)" fill="#e8e8e8"/><path d="M27.6,407.93c2.3-4.12,7.24-2.91,10.67-5.18,1.33-.88,1.76-2.92-.13-3.42a.75.75,0,0,0-.39,1.45c.62.16-1.68,1.26-1.78,1.3-.68.23-1.37.39-2.07.57a24.14,24.14,0,0,0-3.74,1.15,7.85,7.85,0,0,0-3.86,3.37.75.75,0,0,0,1.3.76Z" transform="translate(3.07 -31.68)" fill="#e8e8e8"/><path d="M36.93,386a8.42,8.42,0,0,0-2.45,9.87c2.06,4.58,7.09,4,10,7.44.62.74,1.67-.33,1.06-1.07-1.8-2.14-4.28-2.37-6.61-3.71-4.46-2.57-4.67-8.2-.92-11.47.73-.63-.34-1.69-1.06-1.06Z" transform="translate(3.07 -31.68)" fill="#e8e8e8"/><path d="M38.43,385.79a15,15,0,0,0,9.61,3c1,0,1-1.53,0-1.5a13.64,13.64,0,0,1-8.85-2.81c-.77-.58-1.52.72-.76,1.29Z" transform="translate(3.07 -31.68)" fill="#e8e8e8"/><path d="M40.88,384.94l-1.31-5.15-.73.95,2.86-.16c.93-.05,2.53-.45,3.19.42a8.69,8.69,0,0,1,.7,2.37l.87,3a.75.75,0,0,0,1.45-.4l-1.22-4.14a4.79,4.79,0,0,0-1.06-2.42,3.32,3.32,0,0,0-2.34-.38c-1.48.07-3,.17-4.45.25a.76.76,0,0,0-.72.95l1.32,5.15a.75.75,0,0,0,1.44-.4Z" transform="translate(3.07 -31.68)" fill="#e8e8e8"/><path d="M39.14,381.53a3.85,3.85,0,0,0,5.93,1.1c.72-.64-.35-1.7-1.06-1.06a2.34,2.34,0,0,1-3.57-.79c-.42-.87-1.72-.11-1.3.75Z" transform="translate(3.07 -31.68)" fill="#e8e8e8"/><path d="M48.05,388c5.33.42,4.25,7.17,4.68,10.89s2.07,6.62.4,10.2c-1.86,4-6.71,4.66-8.58,8.71-.4.88.89,1.64,1.29.76,1.65-3.55,5.81-4.23,8.15-7.12,1.87-2.31,1.72-5.07,1.22-7.84a64.66,64.66,0,0,1-1.14-8.33,13.66,13.66,0,0,0-.82-5,5.86,5.86,0,0,0-5.2-3.74c-1-.08-1,1.42,0,1.5Z" transform="translate(3.07 -31.68)" fill="#e8e8e8"/><path d="M34.61,406c2.12,2,8.22,7.12,11.29,4.3,1.27-1.17.48-2.7-.46-3.77a39.18,39.18,0,0,0-6.66-5.87c-.78-.57-1.53.73-.76,1.3a44.51,44.51,0,0,1,4.06,3.32c.67.62,4.4,3.53,1.86,4.2-1.26.34-3-.84-4-1.41A22.9,22.9,0,0,1,35.67,405c-.71-.65-1.77.41-1.06,1.06Z" transform="translate(3.07 -31.68)" fill="#e8e8e8"/><path d="M29.12,469.83c-2.54,7.76,1.32,14.59,2.47,22.21s-3.26,15.3-.57,22.88c.32.9,1.77.51,1.44-.4-2.53-7.15,1.64-14.34.79-21.66-.89-7.72-5.27-14.75-2.68-22.63.3-.92-1.15-1.32-1.45-.4Z" transform="translate(3.07 -31.68)" fill="#e8e8e8"/><path d="M32.2,471.54a157.34,157.34,0,0,0,52,22c.94.21,1.35-1.24.4-1.45A156,156,0,0,1,33,470.24c-.81-.53-1.57.77-.76,1.3Z" transform="translate(3.07 -31.68)" fill="#e8e8e8"/><path d="M30.8,516.32c-1.22,7.56,10.73,10.55,16,12.85A208.07,208.07,0,0,0,76,539.37a.75.75,0,0,0,.4-1.44A210.8,210.8,0,0,1,55.13,531c-4.21-1.63-23.94-7.73-22.88-14.28.15-1-1.3-1.36-1.45-.4Z" transform="translate(3.07 -31.68)" fill="#e8e8e8"/><path d="M39.32,491.74c6.25,5.33,13.47,8.95,21,12,7.25,3,15.56,7.24,23.39,4,.88-.36.5-1.81-.4-1.44-7.5,3.06-15.64-1.2-22.6-4.05-7.32-3-14.32-6.48-20.37-11.65-.73-.62-1.79.43-1.06,1.06Z" transform="translate(3.07 -31.68)" fill="#e8e8e8"/><path d="M35.37,469.23c22.68-4.42,43.86,3.84,64.43,12.5.88.38,1.27-1.07.39-1.44-20.87-8.8-42.24-17-65.22-12.5-.94.18-.54,1.63.4,1.44Z" transform="translate(3.07 -31.68)" fill="#e8e8e8"/><path d="M100.47,482.78a22.07,22.07,0,0,1-8.85,6.28c-.89.35-.5,1.8.4,1.45a23.65,23.65,0,0,0,9.51-6.67c.63-.73-.43-1.8-1.06-1.06Z" transform="translate(3.07 -31.68)" fill="#e8e8e8"/><path d="M101.76,486.58c-.51,4,1.23,8.9-1,12.54-2.12,3.48-6.74,3.33-10,5.29a.75.75,0,0,0,.76,1.3c3.51-2.08,8.45-1.85,10.7-5.76s.53-9,1.08-13.37c.12-.95-1.39-.95-1.5,0Z" transform="translate(3.07 -31.68)" fill="#e8e8e8"/><path d="M99.91,501.3c2.34,7.22.88,14.35,2.66,21.54.53,2.13,1,5.48.1,7.68-1.45,3.45-5.55,4.06-8.76,4.83s-6.69.85-9.73,2.52c-.84.46-.09,1.76.76,1.29,6.45-3.54,18.56-.87,19.59-10.58.5-4.72-1.81-8.89-1.5-13.61a36.67,36.67,0,0,0-1.67-14.07c-.3-.91-1.75-.52-1.45.4Z" transform="translate(3.07 -31.68)" fill="#e8e8e8"/><path d="M85.42,514.68q.09,9.47-.5,18.9c-.06,1,1.44,1,1.5,0q.58-9.45.5-18.9a.75.75,0,0,0-1.5,0Z" transform="translate(3.07 -31.68)" fill="#e8e8e8"/><path d="M42.47,476.78c.8-1.36,4.44-.66,5.68-.49.56.07,1.08.35,1.63.43a12.78,12.78,0,0,0,4.69-.37,22.74,22.74,0,0,1,9-.56c2,.33,3.83.78,5.82.92,3.08.22,6.12.34,8.6,2.53,1.31,1.16,2.09,2.81,3.48,3.92,3,2.35,7,2.31,9.83,5,.7.66,1.76-.4,1.06-1.06a12.82,12.82,0,0,0-4.5-2.69c-3.33-1.27-5.55-2.32-7.86-5.08-3.4-4.06-6.36-3.64-11.32-4.13-3-.29-6-1.35-9-1.28-2.83.06-5.51,1.49-8.33,1.45-3.56,0-7.67-3.47-10.11.69a.75.75,0,0,0,1.3.75Z" transform="translate(3.07 -31.68)" fill="#e8e8e8"/><path d="M129,467.61a16,16,0,0,0,3.12,11.33c3.1,4.09,7.71,4.59,11.49,7.65.75.61,1.82-.45,1.06-1.06-3-2.39-6.84-3-9.66-5.64a14.54,14.54,0,0,1-4.51-12.28c.09-1-1.41-1-1.5,0Z" transform="translate(3.07 -31.68)" fill="#e8e8e8"/><path d="M142.94,485.55a19.37,19.37,0,0,0-9.69,4.4c-.47.38-.15,1.08.33,1.25a82.35,82.35,0,0,0,30.34,4.48c1,0,1-1.53,0-1.5A81.27,81.27,0,0,1,134,489.75l.33,1.26a18,18,0,0,1,9-4c.95-.15.55-1.6-.4-1.45Z" transform="translate(3.07 -31.68)" fill="#e8e8e8"/><path d="M132,468.44c13,5.54,27.82,4.66,41.62,3.8,1-.06,1-1.56,0-1.5-13.48.84-28.17,1.82-40.86-3.6-.88-.37-1.64.92-.76,1.3Z" transform="translate(3.07 -31.68)" fill="#e8e8e8"/><path d="M176.67,471.83a17.93,17.93,0,0,1-15.87,13.26c-1,.07-1,1.57,0,1.5a19.46,19.46,0,0,0,17.32-14.36.75.75,0,0,0-1.45-.4Z" transform="translate(3.07 -31.68)" fill="#e8e8e8"/><path d="M160.74,486.64a20,20,0,0,0,8.08,3.85A8.54,8.54,0,0,1,171,491c1,0,1.13.55.39,1.64a15.76,15.76,0,0,1-1.94.94,16.71,16.71,0,0,1-5.93,1.1.75.75,0,0,0,0,1.5c2.4,0,10.8-1,10.33-4.83-.2-1.71-2.61-1.83-3.87-2.16-2.93-.75-5.79-1.64-8.13-3.64-.73-.63-1.79.43-1.06,1.06Z" transform="translate(3.07 -31.68)" fill="#e8e8e8"/><path d="M131.43,468c.95-2.18,10.14-1.81,12.34-1.9,3.57-.16,7.15-.2,10.73-.05a74.25,74.25,0,0,1,22.34,4.21c.91.33,1.31-1.12.4-1.45a79.78,79.78,0,0,0-27.2-4.35c-4.78,0-9.55.27-14.31.67-2.09.17-4.64-.07-5.59,2.12-.39.87.91,1.64,1.29.75Z" transform="translate(3.07 -31.68)" fill="#e8e8e8"/><path d="M185.44,447.76a50.75,50.75,0,0,1,6.86-3.38c.89-.35.5-1.8-.39-1.44a50.76,50.76,0,0,0-7.22,3.53.75.75,0,0,0,.75,1.29Z" transform="translate(3.07 -31.68)" fill="#e8e8e8"/><path d="M185.55,448.12c.77-.32,2.14-.27,2.09.87s-1.79.44-2.36.13c-.86-.45-1.62.85-.76,1.3a4.57,4.57,0,0,0,2.89.7,2.14,2.14,0,0,0,1.72-2c.16-2.16-2.19-3.2-4-2.47-.89.36-.5,1.81.4,1.45Z" transform="translate(3.07 -31.68)" fill="#e8e8e8"/><path d="M188.66,451.06a16.46,16.46,0,0,0,6.36-3.74c.7-.67-.36-1.73-1.06-1.06a14.64,14.64,0,0,1-5.7,3.35c-.91.29-.52,1.74.4,1.45Z" transform="translate(3.07 -31.68)" fill="#e8e8e8"/><path d="M192.1,443.77a2.28,2.28,0,0,1,1.52,2.62c-.21.94,1.24,1.35,1.45.4a3.8,3.8,0,0,0-2.57-4.46c-.93-.29-1.32,1.16-.4,1.44Z" transform="translate(3.07 -31.68)" fill="#e8e8e8"/><path d="M191.38,443.39c-6.09-7.47,12.93-13.8,16.79-15.43,5.24-2.22,10.06-4.8,13.65-9.3.59-.75-.46-1.82-1.06-1.07-6.28,7.89-16.37,9.29-24.65,14.18-4.42,2.6-10,7.48-5.79,12.68.61.75,1.66-.32,1.06-1.06Z" transform="translate(3.07 -31.68)" fill="#e8e8e8"/><path d="M194.36,447.7c4.58,2.49,9.44,1.81,14-.45,3.18-1.57,6-3.79,9-5.6a34.39,34.39,0,0,1,14.3-4.7c.95-.1,1-1.6,0-1.5a36.21,36.21,0,0,0-15.75,5.34c-6.21,3.86-13.22,9.75-20.82,5.62-.85-.46-1.61.83-.76,1.29Z" transform="translate(3.07 -31.68)" fill="#e8e8e8"/><path d="M221.33,419.83c6.69,1.55,13.87,6.22,12.77,14.09-.13.94,1.32,1.35,1.45.4,1.21-8.71-6.18-14.16-13.82-15.93-.94-.22-1.34,1.22-.4,1.44Z" transform="translate(3.07 -31.68)" fill="#e8e8e8"/><path d="M240.41,453.12c-2.15-.72-4.14.48-6.07,1.4-2.86,1.38-6.12,3-8.29,5.35-2.56,2.81-2.64,7.33,1.36,8.79,4.49,1.64,10.38-.49,14-3.23,1.39-1.06,8.1-7.54,3.67-8.57-.94-.22-1.34,1.22-.4,1.44,1.78.42-5.32,6.74-5.65,6.93a14.69,14.69,0,0,1-8,2.37c-3-.18-5.74-3.57-4.11-6.3a9.18,9.18,0,0,1,3.08-2.62c2.2-1.45,7.45-5,10.07-4.11.92.31,1.31-1.14.4-1.45Z" transform="translate(3.07 -31.68)" fill="#e8e8e8"/><path d="M241.32,454.37c5.9-2.83,11.22-7.39,16.57-11.13l17.31-12.08c.79-.55,0-1.85-.76-1.29L257.13,442c-5.35,3.73-10.67,8.3-16.56,11.12-.87.42-.11,1.71.75,1.3Z" transform="translate(3.07 -31.68)" fill="#e8e8e8"/><path d="M245,458.4a401.36,401.36,0,0,1,33-25.23c.8-.54.05-1.85-.75-1.3a401.13,401.13,0,0,0-33.31,25.47c-.73.63.33,1.68,1.06,1.06Z" transform="translate(3.07 -31.68)" fill="#e8e8e8"/><path d="M275,431.05a1.6,1.6,0,0,1,2.33.9.75.75,0,0,0,1.44-.4,3.11,3.11,0,0,0-4.53-1.79c-.82.5-.07,1.8.76,1.29Z" transform="translate(3.07 -31.68)" fill="#e8e8e8"/><path d="M239.47,457.51c-1.59-2.11-4.94.61-6.28,1.83a4.79,4.79,0,0,0-1.84,3.2,2.09,2.09,0,0,0,2,2.14c.95.13.94-1.37,0-1.5-1.29-.17.26-2.09.48-2.33a8.08,8.08,0,0,1,1.33-1.14c.34-.24,2.68-1.93,3-1.44.57.76,1.88,0,1.3-.76Z" transform="translate(3.07 -31.68)" fill="#e8e8e8"/><path d="M266.05,462.06l43.37,15.16c.91.32,1.3-1.13.39-1.45l-43.36-15.16c-.91-.32-1.31,1.13-.4,1.45Z" transform="translate(3.07 -31.68)" fill="#e8e8e8"/><path d="M267,460.37V456.8a.75.75,0,0,0-1.5,0v3.57a.75.75,0,0,0,1.5,0Z" transform="translate(3.07 -31.68)" fill="#e8e8e8"/><path d="M267.07,456.45A326.33,326.33,0,0,0,313,469.59c.94.19,1.35-1.25.4-1.45A325,325,0,0,1,267.47,455c-.91-.34-1.3,1.11-.4,1.44Z" transform="translate(3.07 -31.68)" fill="#e8e8e8"/><path d="M314,473.74a.75.75,0,0,0,0-1.5.75.75,0,0,0,0,1.5Z" transform="translate(3.07 -31.68)" fill="#e8e8e8"/><path d="M312.56,469l.38,7.76c.05,1,1.55,1,1.5,0l-.38-7.76c0-1-1.54-1-1.5,0Z" transform="translate(3.07 -31.68)" fill="#e8e8e8"/><path d="M314.36,477.74l57.18-30.91c.85-.45.1-1.75-.75-1.29l-57.19,30.9c-.84.46-.09,1.76.76,1.3Z" transform="translate(3.07 -31.68)" fill="#e8e8e8"/><path d="M315,468.65c9.29-2.93,17.76-7.77,26.33-12.33l29.06-15.45c.85-.46.1-1.75-.76-1.3l-27.3,14.52c-9,4.8-17.94,10-27.73,13.11-.92.29-.53,1.74.4,1.45Z" transform="translate(3.07 -31.68)" fill="#e8e8e8"/><path d="M268.66,456q24-11.6,48.9-21.2c.89-.34.5-1.79-.4-1.44q-25.07,9.66-49.25,21.35c-.87.42-.11,1.71.75,1.29Z" transform="translate(3.07 -31.68)" fill="#e8e8e8"/><path d="M321.12,434.57q23.56,2.1,47,5.44c.95.13,1.36-1.31.4-1.45q-23.62-3.37-47.4-5.49c-1-.09-1,1.41,0,1.5Z" transform="translate(3.07 -31.68)" fill="#e8e8e8"/><path d="M369.73,439.85l-.4,3.74c-.11,1,1.39,1,1.5,0l.4-3.74c.11-1-1.39-1-1.5,0Z" transform="translate(3.07 -31.68)" fill="#e8e8e8"/></g><g id="arm_right" data-name="arm right"><path d="M139.52,188.94a233.88,233.88,0,0,0-7.09,39.85,209.73,209.73,0,0,0-.9,22.32,286.3,286.3,0,0,0,3,35.12L113,295.73q3.41,9.31,6.83,18.63a110.68,110.68,0,0,0,15-.08c5.75-.43,8.68-.67,11.11-2.08,3.52-2,5.55-5.55,8.67-15.92,4.76-15.85,5.41-23.21,5.41-23.21,3.16-30.11,4.75-45.16-3.08-61.62A68.54,68.54,0,0,0,139.52,188.94Z" transform="translate(3.07 -31.68)" fill="#fff"/><path d="M150.31,208.25c-1.86,21.85-2.61,39.44-2.94,51.4-.54,19.31-.15,28.37-6.46,37.3-7.76,11-20.72,14.8-28.93,16.32a99.24,99.24,0,0,0,24.57.82c7.41-.69,10.15-1.83,12.29-3.56,4.75-3.83,5.57-9.77,6.46-15.34,4-25,5.87-20.79,6.49-32.44C163.09,238.25,154.87,217.87,150.31,208.25Z" transform="translate(3.07 -31.68)" fill="#9e9e9e" opacity="0.18"/><path d="M140.14,183.94a236.09,236.09,0,0,0-6.38,102.49c.15.95,1.6.55,1.45-.4a234.14,234.14,0,0,1,6.38-101.69.75.75,0,0,0-1.45-.4Z" transform="translate(3.07 -31.68)"/><path d="M141.14,286.08c-2.67-2.92-7.06-.46-10,.84-7.09,3.12-13.41,8.62-21.45,8.84a.75.75,0,0,0,0,1.5c4.56-.13,8.49-1.74,12.46-3.89,3.35-1.82,14.51-10,17.92-6.23.65.71,1.71-.35,1.06-1.06Z" transform="translate(3.07 -31.68)"/><path d="M110.38,313.72a83.43,83.43,0,0,0,24.53,1.3c5.44-.55,12.73-.86,16.06-5.91,4-6,5.22-15.38,6.88-22.31,2.1-8.74,3.76-17.58,5.05-26.48.14-.95-1.31-1.35-1.45-.4a289.77,289.77,0,0,1-8.9,40.86c-1.34,4.53-2.66,9.29-7.62,11a48.5,48.5,0,0,1-11,1.84,82,82,0,0,1-23.19-1.34c-1-.19-1.35,1.26-.4,1.45Z" transform="translate(3.07 -31.68)"/></g><g id="torso-2" data-name="torso"><path d="M134.46,189.61a102.41,102.41,0,0,1,21.13-12.91c30.33-13.79,59.57-8.95,72.65-5.85a208.66,208.66,0,0,0,1.3,49.1c2.44,16.76,6.32,29,9.56,39.11a318.15,318.15,0,0,0,25.21,57.79,60.91,60.91,0,0,1-16.95,20c-12.31,9.26-24.89,11-36.5,12.6a116.62,116.62,0,0,1-39.11-1.3,134.77,134.77,0,0,0-7.47-44.05c-7.82-22.18-15.89-25.4-24.85-52.76-5.68-17.35-6.8-29.36-7-37.5A116.56,116.56,0,0,1,134.46,189.61Z" transform="translate(3.07 -31.68)" fill="#fff" stroke="#000" stroke-miterlimit="10"/><path d="M174.68,186.21c3.06-.68,8.47-1.41,13.8.93,14.62,6.44,20.86,32.68,13.9,51.78C197,253.55,187.31,254.76,187,266.13c-.32,11.56,9.56,17.26,18.53,30.36,6.8,9.93,14.32,25.92,15.12,51.44a57.34,57.34,0,0,0,14-3.91c16.93-7.16,25.9-20.73,29.5-27.07-2.43-4.37-5.67-10.42-9.18-17.79a341.27,341.27,0,0,1-14-34.68c-3.34-9.64-7.22-20.83-9.91-33.14a184.54,184.54,0,0,1-2.75-60.49,115,115,0,0,0-42.13-1.78Z" transform="translate(3.07 -31.68)" fill="#9e9e9e" opacity="0.24"/></g><g id="bowl"><path d="M112.29,360.76a108,108,0,0,1,8.91-9.29,120.34,120.34,0,0,1,15.22-11.77,107.74,107.74,0,0,1,21.06-11.46,84.43,84.43,0,0,1,33.79-5.43,96.16,96.16,0,0,1,3.7,14.27c1.45,8.09,2.92,16.29.72,26-1,4.59-3,13.12-10.33,20.18-8.79,8.45-19.67,9.36-24.63,9.77a47.1,47.1,0,0,1-25.79-5.27C119.13,379.32,113.56,364.46,112.29,360.76Z" transform="translate(3.07 -31.68)" fill="#ec615b"/><path d="M152.93,329.72a127.89,127.89,0,0,0-35,23.76c-2.23,2.14-8.64,6.66-6.29,10.52,2.07,3.41,8.17,2,11.24,1.5,14.15-2.15,27-9.06,38.87-16.8,10.71-7,22.84-14.41,29.37-25.8a.76.76,0,0,0-.65-1.13,80.84,80.84,0,0,0-38.7,8.24c-.87.43-.11,1.72.75,1.3a79.2,79.2,0,0,1,38-8l-.65-1.13C184.07,332.2,174,338.65,164.58,345c-9.57,6.5-19.63,12.59-30.66,16.26a70.66,70.66,0,0,1-7.28,2c-2.46.54-7.21,2.07-9.59,1.3-1.27.2-1.83-.67-1.69-2.61q-2.4-2.36.06-3.84c.61-1.12,2.09-2.13,3-3q2.73-2.65,5.61-5.15a126.72,126.72,0,0,1,29.68-19c.87-.41.11-1.7-.76-1.3Z" transform="translate(3.07 -31.68)"/><path d="M111.54,362.19c8.3,25.36,36.73,36.18,61.15,28.17,12-3.94,20.95-11.31,23.3-24.16,2.57-14.08.88-30.2-4-43.59-.33-.9-1.78-.51-1.45.4,4.34,11.89,5.58,24.94,4.64,37.54-.47,6.26-1.86,12.61-5.78,17.66-4.21,5.42-10.71,8.61-17.11,10.71-23.61,7.73-51.25-2.52-59.3-27.13-.3-.91-1.75-.52-1.45.4Z" transform="translate(3.07 -31.68)"/></g><g id="hand_right-2" data-name="hand right"><path d="M114.1,296.64,94.69,257.7a13.1,13.1,0,0,0-9.88,0,12.87,12.87,0,0,0-5.77,5l14.53,25.72a4.43,4.43,0,0,0-1.92,4,4.56,4.56,0,0,0,2,3.3,7.9,7.9,0,0,0-1.41,4.22c-.12,4.08,3.19,6.62,3.56,6.9A7.56,7.56,0,0,0,100,314.9a12.4,12.4,0,0,0,1.24,3.78c1.55,3,3.74,4.08,8,7.42,1.23,1,3.07,2.48,5.24,4.48l2.56,1.86,8.76,14.25a9.71,9.71,0,0,0-3.27,4.93c-.87,3.34.56,6.14,1.54,8.06a16.18,16.18,0,0,0,7.8,7.67,15.55,15.55,0,0,0,15.72-1.84,14.8,14.8,0,0,0,4.92-7.61c1.13-4.15.06-7.55-.71-10-1.06-3.37-2.19-6.94-5.63-9-5-3-10.9-.35-11.68,0l-15.66-29.21c.2-1.15.47-2.87.7-5,.46-4.28.68-6.47,0-8.78s-2.54-5.28-3.76-5C114.14,291.26,114.1,296.39,114.1,296.64Z" transform="translate(3.07 -31.68)" fill="#fff"/><path d="M86.28,257.2l16.19,31,5,1a4.6,4.6,0,0,1-1.29,3.73,4.43,4.43,0,0,1-3,1.21l27.67,49.42a17.45,17.45,0,0,0-.61,9.22c.42,1.95,1.78,8.35,7.3,10.36,5.08,1.84,11.19-1,13.64-5.42,2-3.65,1.08-7.48.51-9.78s-1.63-6.67-5.63-9c-5.08-2.95-10.75-.34-11.35-.05l-16-29.16a25,25,0,0,0,1-6.83,25.9,25.9,0,0,0-3.55-12.95c-.79,2.28-1.57,4.55-2.36,6.82q-4.17-8.91-8.64-18-5.43-11-10.89-21.56Z" transform="translate(3.07 -31.68)" fill="#9e9e9e" opacity="0.25"/><path d="M96.55,300.65a28.67,28.67,0,0,1,3.45,3.9,30.3,30.3,0,0,1,4.59,9.42c1.18,3.77,3.75,9.25,9.83,16.61a12.25,12.25,0,0,0,.12-3.49,13.92,13.92,0,0,0-4.41-8.45c.62.31,2.7,1.29,3.46.55s-.15-2.75-1-4.7a39,39,0,0,0-3.95-6.5c-1.78-2.57-2.67-3.86-2.93-4.12C104.52,302.74,101.92,300.79,96.55,300.65Z" transform="translate(3.07 -31.68)" fill="#9e9e9e" opacity="0.28"/><path d="M114.22,290.92c-1.38,5.8-2.63,16.46,3.24,20.34a.75.75,0,0,0,1.1-.45c2.2-6,4.47-16.68-2.51-20.52-.85-.47-1.6.83-.76,1.29,6.25,3.44,3.74,13.63,1.83,18.84l1.1-.45c-5.12-3.39-3.73-13.71-2.55-18.65.22-.94-1.23-1.34-1.45-.4Z" transform="translate(3.07 -31.68)"/><path d="M93.3,294c-3.43-2.14,1.63-4.17,2.63-4.48a16.65,16.65,0,0,1,4.09-.61,20.71,20.71,0,0,1,7.29,1c.92.28,1.32-1.16.4-1.45-4.37-1.35-10.23-1.93-14.4.43-2.45,1.38-3.46,4.68-.77,6.37.83.51,1.58-.79.76-1.3Z" transform="translate(3.07 -31.68)"/><path d="M93.2,296c4.29-3.39,12.25,1.79,14.93-4.63.37-.89-1.08-1.28-1.44-.4-1.46,3.5-6.25,2.35-9.13,2.32A8,8,0,0,0,92.14,295c-.76.6.31,1.66,1.06,1.06Z" transform="translate(3.07 -31.68)"/><path d="M91.61,297c-.23,3.34-.28,7.26,2.56,9.58,3.08,2.52,8,3.76,11.67,5,.91.31,1.31-1.14.4-1.45a61.06,61.06,0,0,1-9.91-3.94c-3.5-1.91-3.46-5.68-3.22-9.19.06-1-1.44-1-1.5,0Z" transform="translate(3.07 -31.68)"/><path d="M93,296.07c1.74,2.42,3.56,4.92,6.11,6.53,3.27,2.06,9.23,1.1,8.67,6.56-.09,1,1.41.95,1.5,0a5.64,5.64,0,0,0-3.82-6.14c-2.15-.7-4-.61-6-1.95a22.69,22.69,0,0,1-5.2-5.76c-.56-.77-1.86,0-1.3.76Z" transform="translate(3.07 -31.68)"/><path d="M93.83,306.66c1.55,9.45,11.45,12,19.56,13.25,1,.14,1.36-1.3.4-1.44-7.6-1.13-17.05-3.28-18.51-12.21-.16-.95-1.6-.55-1.45.4Z" transform="translate(3.07 -31.68)"/><path d="M107.27,309.83a15.24,15.24,0,0,1,6,8.09c.28.92,1.73.53,1.44-.4a16.85,16.85,0,0,0-6.66-9c-.8-.55-1.55.75-.75,1.29Z" transform="translate(3.07 -31.68)"/><path d="M97.65,313.87a28.7,28.7,0,0,0,6.75,9.52c3,2.77,6.88,4.5,9.49,7.72.61.75,1.67-.32,1.06-1.06-2.4-3-5.78-4.57-8.66-7A27.51,27.51,0,0,1,99,313.12c-.4-.88-1.69-.12-1.3.75Z" transform="translate(3.07 -31.68)"/><path d="M107.87,319c4.63,1.91,5.76,7.06,6.66,11.46.19.95,1.63.55,1.44-.39-1-5.06-2.51-10.37-7.7-12.52-.89-.36-1.28,1.09-.4,1.45Z" transform="translate(3.07 -31.68)"/><path d="M78.09,263.86c4.61,8.53,10.85,16.06,14.83,24.93.4.88,1.69.12,1.3-.76-4-8.87-10.23-16.4-14.84-24.92-.46-.85-1.75-.09-1.29.75Z" transform="translate(3.07 -31.68)"/><path d="M79.69,263.07A12.64,12.64,0,0,1,95,258.25c.89.35,1.28-1.1.4-1.45a14.13,14.13,0,0,0-17,5.51c-.53.82.77,1.57,1.29.76Z" transform="translate(3.07 -31.68)"/><path d="M94,258.08l18.33,38c.42.87,1.71.11,1.29-.75l-18.32-38c-.42-.87-1.72-.11-1.3.76Z" transform="translate(3.07 -31.68)"/><path d="M113.71,329.36a115.08,115.08,0,0,1,11.39,17.71c.44.86,1.74.1,1.29-.76a116.72,116.72,0,0,0-11.62-18c-.59-.76-1.65.31-1.06,1.06Z" transform="translate(3.07 -31.68)"/><path d="M117.11,309c7,9.43,10.14,21,17,30.5.56.77,1.86,0,1.3-.76-6.87-9.51-10-21.07-17-30.5-.57-.77-1.87,0-1.3.76Z" transform="translate(3.07 -31.68)"/><path d="M124.93,346a11.06,11.06,0,0,0-2.36,12.82c.41.87,1.7.11,1.3-.76A9.52,9.52,0,0,1,126,347c.7-.67-.37-1.73-1.06-1.06Z" transform="translate(3.07 -31.68)"/><path d="M135.61,339.44a10.9,10.9,0,0,1,13.79,4.83c.46.85,1.76.09,1.3-.75a12.4,12.4,0,0,0-15.85-5.37c-.88.38-.12,1.67.76,1.29Z" transform="translate(3.07 -31.68)"/><path d="M122.62,358.2c3.43,8.95,13.19,13.83,22.25,9.74,8.88-4,11.62-16.68,5.47-24.3-.61-.75-1.66.32-1.06,1.06,5.71,7.07,2.48,19.07-5.83,22.15-8.06,3-16.36-1.14-19.39-9.05-.34-.89-1.79-.5-1.44.4Z" transform="translate(3.07 -31.68)"/></g><g id="hand_left-2" data-name="hand left"><path d="M219,169.32c-2.91,2.72-3.2,6.68-3.33,8.83-1.24,19.62-1.85,29.44-1.71,30.72,1.68,15,4.12,23.5,10.71,52.25,1.74,7.61,3.12,13.76,3.93,17.4-.71,2.2-1.74,5.56-2.88,9.67-2.41,8.7-3.42,14.17-4.53,19.22A188.51,188.51,0,0,1,212,338.49a140.81,140.81,0,0,1-9.49,19.05c-1.83,0-4.55-.05-7.85,0-11.89.18-13,1-13.19,1.74-.46,1.52,2.67,3.66,3.2,4a10.8,10.8,0,0,0,7.19,1.71,18.68,18.68,0,0,1-4.42,6.28,21,21,0,0,1-7.85,4.34c-6.36,2.3-8.22,1-12.45,3a19.34,19.34,0,0,0-7.47,6.41,35.33,35.33,0,0,0,5.63.21,37.12,37.12,0,0,0,10.29-2.05,38.66,38.66,0,0,0,6.81-3.14,20.56,20.56,0,0,1-6.72,6.66c-2.63,1.57-4.39,1.72-8.21,3.3a47.69,47.69,0,0,0-8.08,4.3,11.52,11.52,0,0,0,4.85,4.2c3.37,1.47,6.68.69,11.08-.35a40.51,40.51,0,0,0,7.29-2.46,15.22,15.22,0,0,1-5.5,5.68c-2.58,1.51-4.45,1.42-7.64,3.27a20.59,20.59,0,0,0-4.44,3.49,34.74,34.74,0,0,0,13.38-1.43,35.89,35.89,0,0,0,11.8-6.5c12.15-9.5,20.13-25.41,22.36-30.07,2.68-2.9,6.39-7,10.67-12.1,5.66-6.73,13.7-16.29,20.25-26.69a143,143,0,0,0,16.65-38c-.76-4-1.89-10.23-3.05-17.83-1.45-9.4-1.72-12.9-2.69-20.05-2.22-16.42-5-29.15-7.85-42.29-3.61-16.59-3.17-11.69-4.51-19-1.15-6.25-2.12-11-5-17.16-4.06-8.57-7.4-9.73-8.35-10A10.4,10.4,0,0,0,219,169.32Z" transform="translate(3.07 -31.68)" fill="#fff"/><path d="M225.74,166.64c2.22,7.38,5.21,18.07,8,31.1,8.78,40.2,14.53,66.58,7.65,98.24-3.67,16.89-13.72,33.81-33.82,67.64-6.78,11.42-14.44,23.26-28.87,28.84a46.9,46.9,0,0,1-19.34,3,17.77,17.77,0,0,0,7.2,3.79c8.14,2.06,14.88-2.68,16-3.49a12.92,12.92,0,0,1-4,4.95c-2.91,2.13-5.3,1.77-9.17,4a20.58,20.58,0,0,0-4.25,3.29,34.58,34.58,0,0,0,15.39-2c8.33-3.17,13-8.91,19-16.15A97.66,97.66,0,0,0,212,370.13a191.13,191.13,0,0,0,18.56-21A193.08,193.08,0,0,0,247,323.7a196,196,0,0,0,13.17-30.37c-1.06-6.77-2.64-17-4.53-29.46-2.87-18.91-3.14-21.23-4.37-28-3.9-21.58-4.73-17.86-7.37-34.09-1.82-11.22-2-16.35-6.07-23A39,39,0,0,0,225.74,166.64Z" transform="translate(3.07 -31.68)" fill="#9e9e9e" opacity="0.22"/><path d="M217,170.52c-11.88,37,4.47,74.25,11.3,110.47.18.95,1.62.54,1.45-.4-6.78-35.95-23.09-72.95-11.31-109.67.3-.92-1.15-1.32-1.44-.4Z" transform="translate(3.07 -31.68)"/><path d="M231.5,275.65c-8.62,10.16-9.42,25.44-12.54,37.89-3.83,15.24-8.81,30.18-17.11,43.62-.51.82.79,1.58,1.29.76,7.43-12,12.27-25.27,15.94-38.87,1.83-6.8,3.39-13.66,4.91-20.54,1.71-7.72,3.31-15.6,8.57-21.8.62-.73-.44-1.8-1.06-1.06Z" transform="translate(3.07 -31.68)"/><path d="M202.18,356.66c-4.67.08-9.34.1-14,.23-2.53.08-5.74.12-7.54,2.19-4.55,5.2,8.7,6.1,11,6.65.94.22,1.34-1.22.4-1.45l-7.46-1.77-2.49-.59,1.59-3c1-.68,2.81-.46,3.89-.51,4.86-.23,9.74-.17,14.6-.25a.75.75,0,0,0,0-1.5Z" transform="translate(3.07 -31.68)"/><path d="M191,365.54c-3,4.72-6.68,7.94-12.11,9.51-3.61,1-7.4,1.35-11,2.52-2.87.93-9.63,3.74-9,7.68a.74.74,0,0,0,.52.52c3.24,1.13,7.68.18,11-.45a45.83,45.83,0,0,0,12.68-4.57c.86-.44.1-1.74-.76-1.29-5.54,2.9-12,5.08-18.3,5.12-.47,0-3.37.24-3.57-.29-.36-1,4.27-3.76,4.62-3.94a30.4,30.4,0,0,1,7.73-2.45c8.5-1.79,14.71-4,19.49-11.61.52-.82-.78-1.57-1.29-.75Z" transform="translate(3.07 -31.68)"/><path d="M181.74,379.69c-3,5.4-7.64,7.75-13.44,9.33-3.58,1-6.85,2-9.45,4.78-.66.7.4,1.76,1.06,1.06,3.82-4,9.46-4,14.28-6.14a19,19,0,0,0,8.84-8.27c.48-.84-.82-1.6-1.29-.76Z" transform="translate(3.07 -31.68)"/><path d="M159.41,395.52A28.92,28.92,0,0,0,185,389.05c.73-.63-.33-1.69-1.06-1.06a27.32,27.32,0,0,1-24.08,6.09c-.94-.21-1.34,1.23-.4,1.44Z" transform="translate(3.07 -31.68)"/><path d="M158.88,396c7.23,6.67,16.84,4.51,24.62,0a.75.75,0,0,0-.76-1.29c-7.14,4.11-16.08,6.41-22.8.21-.71-.66-1.77.4-1.06,1.06Z" transform="translate(3.07 -31.68)"/><path d="M182,395.34c-3.17,6.92-12.45,6.75-17.27,12.09-.64.72.41,1.78,1.06,1.06,4.94-5.47,14.19-5.16,17.51-12.39.4-.87-.89-1.64-1.3-.76Z" transform="translate(3.07 -31.68)"/><path d="M165,408.91a35.2,35.2,0,0,0,27.31-9.61c4.28-4.15,7.6-9.34,11.12-14.11s7.33-9.27,9.31-14.86c.33-.91-1.12-1.31-1.44-.4-1.73,4.86-5,8.82-8,12.92-3.52,4.75-6.83,9.85-10.87,14.17A33.73,33.73,0,0,1,165,407.41c-1-.07-1,1.43,0,1.5Z" transform="translate(3.07 -31.68)"/><path d="M213.09,370.69c18.39-20.56,37.22-42.08,44.72-69.24a.75.75,0,0,0-1.44-.4C248.93,328,230.25,349.26,212,369.63c-.64.71.42,1.78,1.06,1.06Z" transform="translate(3.07 -31.68)"/><path d="M219.29,170.09c5.65-4.59,12.6-.44,15.8,4.82,2.53,4.15,3.55,9.24,4.78,13.89q3.94,15,7.15,30.1a634.73,634.73,0,0,1,10,62.81c.1,1,1.6,1,1.5,0a639.51,639.51,0,0,0-13-76.42q-2.21-9.42-4.7-18.76c-1.26-4.68-2.44-9.65-5.27-13.68-3.92-5.59-11.59-8.48-17.32-3.82-.75.61.32,1.66,1.06,1.06Z" transform="translate(3.07 -31.68)"/></g><g id="head-2" data-name="head"><path d="M97,147.92c.92,1.9,2.25,4.55,4,7.63,4,7.08,7.82,13.83,14.48,20.6,4.18,4.25,11.94,11.95,24.25,15.33a47.65,47.65,0,0,0,6,1.22,27.33,27.33,0,0,0,14.78-9.77l12.53,4.31a18.18,18.18,0,0,0,6.22-4c3.87-3.85,6.93-10.54,4.63-13.94-.88-1.29-1.89-1.16-4.19-2.51a19.44,19.44,0,0,1-7.09-7.53l-2.49-13.4a12.23,12.23,0,0,0,6.52-4.88c4.52-7.4-1.76-20.22-9.72-26.29-13.16-10-32.23-2.62-36.93-.79C108.5,122.24,99.36,142.29,97,147.92Z" transform="translate(3.07 -31.68)" fill="#fff"/><path d="M138.46,121.55a43.44,43.44,0,0,1,14.53,16c5.88,11.22,4.9,21.77,4.33,27.11A55.28,55.28,0,0,1,146,192.41a26.44,26.44,0,0,0,10.45-5.24,25.1,25.1,0,0,0,4.07-4.24c3.8,3.22,6.1,3,7.12,2.75,4.72-1.29,7.3-11.14,5.9-24.9l-3.41-14.93a21.48,21.48,0,0,0,7.38-6.7c3.25-4.81,4.86-11.56,3.25-15.31C177.71,116.74,160.51,114.48,138.46,121.55Z" transform="translate(3.07 -31.68)" fill="#9e9e9e" opacity="0.28"/><path d="M116.17,100.69c-3.21,1.67-10.08,6.71-23.8,16.8-20,14.68-22.68,18-23.59,22.59-2.29,11.76,8.11,27.6,17,26.59,5.85-.67,10.72-8.61,13-18.2q10.74-8.08,21.59-16.19,7.41-5.52,14.8-11c-.58,9.52,6.38,16.88,13.59,17,5.2.08,10.32-3.6,12.83-9.17.2-.61,1.56-4.54,5.38-6,4.46-1.64,9.34,1.35,11.13,4.49,2.73,4.78.12,13.13-8,18.2,5.58,8.75,9.77,9.17,11.45,9,7.69-.62,13.93-16.9,12.4-30.23-1.6-13.89-11.76-25.55-23-31.05C149.59,83.2,125.83,95.68,116.17,100.69Z" transform="translate(3.07 -31.68)" fill="#461eb8"/><circle cx="148.79" cy="59.37" r="22.65" fill="#461eb8"/><path d="M97.21,149.87c10,19.91,24.68,40.08,48.33,43.55.94.14,1.35-1.31.39-1.45-23.29-3.41-37.55-23.26-47.43-42.86-.43-.86-1.73-.1-1.29.76Z" transform="translate(3.07 -31.68)"/><path d="M146.2,193.13c9.12-1.59,16.62-10.49,21.37-17.89,5.48-8.56,7.68-18.87,4-28.57-.33-.9-1.78-.51-1.44.4,3.51,9.37,1.39,19.15-3.9,27.41-4.47,7-11.92,15.71-20.46,17.2-.95.17-.55,1.62.39,1.45Z" transform="translate(3.07 -31.68)"/><path d="M162.3,129.31c3.23-9.56,16-6,16.4,3.24.22,5.91-3.89,10.32-8.95,12.65-.88.4-.12,1.69.76,1.29,7.59-3.49,13.37-13.22,7.15-20.77-5.12-6.23-14.31-4.2-16.8,3.19-.31.92,1.14,1.31,1.44.4Z" transform="translate(3.07 -31.68)"/><path d="M119.1,148a73.74,73.74,0,0,0,10.67,25.14.76.76,0,0,0,1.29,0c1.6-2.18,3.28-4.27,5.06-6.31.63-.72-.43-1.79-1.06-1.06-1.87,2.13-3.62,4.33-5.29,6.61h1.29a72.72,72.72,0,0,1-10.52-24.78c-.2-.94-1.65-.54-1.44.4Z" transform="translate(3.07 -31.68)"/><path d="M134.07,177.91a28,28,0,0,0,13.55-10.73c.54-.8-.76-1.55-1.3-.75a26.18,26.18,0,0,1-12.65,10c-.9.34-.51,1.79.4,1.45Z" transform="translate(3.07 -31.68)"/><path d="M104.59,148.58c1.11-3.2,3.75-8.28,8-6.33.87.4,1.63-.89.76-1.29-5.28-2.42-8.74,3-10.21,7.22-.32.92,1.13,1.31,1.44.4Z" transform="translate(3.07 -31.68)"/><path d="M127.06,136.75A7,7,0,0,1,137.32,134c.82.52,1.57-.78.76-1.29A8.52,8.52,0,0,0,125.77,136c-.46.85.84,1.61,1.29.76Z" transform="translate(3.07 -31.68)"/><path d="M116.55,170.12v.16a.75.75,0,0,0,1.5,0v-.16a.75.75,0,0,0-1.5,0Z" transform="translate(3.07 -31.68)"/><path d="M121.76,166.9a.75.75,0,0,0,0-1.5.75.75,0,0,0,0,1.5Z" transform="translate(3.07 -31.68)"/><path d="M122.58,172a.75.75,0,0,0,0-1.5.75.75,0,0,0,0,1.5Z" transform="translate(3.07 -31.68)"/><path d="M140.26,156.82a.75.75,0,0,0,0-1.5.75.75,0,0,0,0,1.5Z" transform="translate(3.07 -31.68)"/><path d="M146,152.11v.33a.75.75,0,0,0,1.5,0v-.33a.75.75,0,0,0-1.5,0Z" transform="translate(3.07 -31.68)"/><path d="M145.72,157.65a.75.75,0,0,0,0-1.5.75.75,0,0,0,0,1.5Z" transform="translate(3.07 -31.68)"/><path d="M118.79,159a4.89,4.89,0,0,1-.79,3.87c-.54.8.75,1.55,1.29.76a6.44,6.44,0,0,0,.95-5c-.2-.94-1.65-.54-1.45.4Z" transform="translate(3.07 -31.68)"/><path d="M135.13,153.25c1.48,1,3.32.71,5,.31a.75.75,0,0,0-.4-1.45c-1.26.31-2.65.65-3.8-.15-.79-.56-1.54.74-.76,1.29Z" transform="translate(3.07 -31.68)"/><path d="M161.3,183.47A39.57,39.57,0,0,0,172.85,188c.94.2,1.34-1.24.4-1.45a37.93,37.93,0,0,1-11.2-4.34.75.75,0,0,0-.75,1.3Z" transform="translate(3.07 -31.68)"/><path d="M173,187.61c6.26-2,14.76-10,11.91-17.39-.34-.89-1.8-.5-1.45.4,2.55,6.6-5.35,13.77-10.86,15.54-.91.29-.52,1.74.4,1.45Z" transform="translate(3.07 -31.68)"/><path d="M172.09,159.78c3.2,3.69,6.77,8.67,11.61,10.24.92.29,1.31-1.16.39-1.45-4.47-1.44-8-6.43-10.94-9.85-.63-.73-1.69.34-1.06,1.06Z" transform="translate(3.07 -31.68)"/><ellipse cx="113.94" cy="156.11" rx="2.15" ry="4.41" transform="translate(-49.95 27.08) rotate(-23.63)"/><ellipse cx="135.94" cy="146.6" rx="2.15" ry="4.41" transform="translate(-44.29 35.1) rotate(-23.63)"/><path d="M102.57,171.68a98.48,98.48,0,0,1,6.09,9.08A.75.75,0,0,0,110,180a97,97,0,0,0-6.09-9.07c-.57-.76-1.87,0-1.29.75Z" transform="translate(3.07 -31.68)"/><path d="M103.48,171.15c3-.19,5.68-1.5,8.46-2.62l10.12-4.11c.88-.36.5-1.81-.4-1.44l-8.77,3.55c-3,1.22-6.14,2.92-9.41,3.12-1,.06-1,1.56,0,1.5Z" transform="translate(3.07 -31.68)"/><path d="M109.69,181.23c5.71-1.4,10.81-4.82,15.92-7.62.85-.47.09-1.76-.75-1.3-5,2.73-10,6.11-15.57,7.48a.75.75,0,0,0,.4,1.44Z" transform="translate(3.07 -31.68)"/><path d="M121.55,164.52l3.79,8.46c.4.88,1.69.11,1.3-.76l-3.79-8.46c-.39-.88-1.69-.11-1.3.76Z" transform="translate(3.07 -31.68)"/><path d="M125.65,167.62c-.78-2.24,2.17-4,3.91-4.64a8.59,8.59,0,0,1,5.33-.13.75.75,0,0,0,.4-1.45,10.19,10.19,0,0,0-7.9.94c-1.94,1.14-4,3.26-3.18,5.68.32.91,1.77.52,1.44-.4Z" transform="translate(3.07 -31.68)"/><path d="M132.07,159.15a50.75,50.75,0,0,1,5.63,7.43c.51.82,1.8.07,1.29-.75a52.47,52.47,0,0,0-5.86-7.74c-.65-.71-1.71.35-1.06,1.06Z" transform="translate(3.07 -31.68)"/><path d="M133.62,158.23q10.63-6.18,21.67-11.65c.87-.43.11-1.73-.76-1.3q-11,5.47-21.67,11.66a.75.75,0,0,0,.76,1.29Z" transform="translate(3.07 -31.68)"/><path d="M139.08,166.78c8.36-1.52,14.89-8.29,21.26-13.43.75-.61-.31-1.66-1.06-1.06-6.2,5-12.48,11.56-20.6,13.05-.94.17-.54,1.62.4,1.44Z" transform="translate(3.07 -31.68)"/><path d="M154.7,146.72q2.07,3.33,4.3,6.56c.54.79,1.84,0,1.29-.75-1.48-2.16-2.92-4.34-4.3-6.56-.51-.82-1.8-.07-1.29.75Z" transform="translate(3.07 -31.68)"/><path d="M161.1,129.68q-1.77,9.76-4.4,19.32a.75.75,0,0,0,1.44.4q2.64-9.57,4.41-19.32c.17-1-1.27-1.35-1.45-.4Z" transform="translate(3.07 -31.68)"/><path d="M110.69,168.48a42.4,42.4,0,0,0-2.66,9.1c-.16.94,1.28,1.35,1.45.4a42.4,42.4,0,0,1,2.66-9.1c.37-.89-1.08-1.28-1.45-.4Z" transform="translate(3.07 -31.68)"/><path d="M116.58,167.46a48.76,48.76,0,0,0-3.58,8.83.75.75,0,0,0,1.45.39,46,46,0,0,1,3.43-8.46c.45-.86-.85-1.62-1.3-.76Z" transform="translate(3.07 -31.68)"/><path d="M151.22,146.6l-4.34,11.21c-.35.9,1.1,1.29,1.45.4L152.66,147c.35-.91-1.1-1.3-1.44-.4Z" transform="translate(3.07 -31.68)"/><path d="M155.38,148.69l-2.23,6.12c-.34.91,1.11,1.3,1.44.4l2.24-6.12c.33-.91-1.12-1.3-1.45-.4Z" transform="translate(3.07 -31.68)"/><path d="M140.22,178.68a13.46,13.46,0,0,0,7.95-6.69c.44-.85-.85-1.61-1.3-.75a11.94,11.94,0,0,1-7,6c-.92.3-.53,1.75.39,1.45Z" transform="translate(3.07 -31.68)"/><path d="M170.5,126.85a5.78,5.78,0,0,0-2.75,8.8c.55.79,1.85,0,1.3-.75a4.28,4.28,0,0,1,1.85-6.61c.89-.35.5-1.8-.4-1.44Z" transform="translate(3.07 -31.68)"/><path d="M168.63,133.22a1.76,1.76,0,0,1,2.59-.64,1.79,1.79,0,0,1-.16,2.67c-.74.61.32,1.67,1.06,1.06a3.15,3.15,0,1,0-4.94-3.49c-.37.89,1.08,1.28,1.45.4Z" transform="translate(3.07 -31.68)"/></g></g></svg>