<svg id="Layer_1" height="512" viewBox="0 0 512 512" width="512" xmlns="http://www.w3.org/2000/svg" data-name="Layer 1"><path d="m38.468 474.037h435.064a26.029 26.029 0 0 0 26-26v-156.78a26.029 26.029 0 0 0 -26-26h-435.064a26.029 26.029 0 0 0 -26 26v156.78a26.029 26.029 0 0 0 26 26zm-14-26v-125.016h61.212v139.016h-47.212a14.016 14.016 0 0 1 -14-14zm134.9-125.016v139.016h-61.688v-139.016zm328.164 74.508h-134.9v-51.508h134.9zm-146.9 64.508h-169.264v-184.78h169.264zm132.9 0h-120.9v-52.508h134.9v38.508a14.016 14.016 0 0 1 -14 14zm14-170.78v42.764h-134.9v-56.764h120.9a14.015 14.015 0 0 1 14 14zm-449.064-14h120.9v33.764h-134.9v-19.764a14.015 14.015 0 0 1 14-14z"/><path d="m331.382 454.421v-116.308h-150.764v116.308zm-138.764-104.308h126.764v92.308h-126.764z"/><path d="m195.12 316.474h121.76a6 6 0 0 0 0-12h-121.76a6 6 0 0 0 0 12z"/><path d="m88.75 298.666h6.763a6 6 0 0 0 0-12h-6.763a6 6 0 0 0 0 12z"/><path d="m411.137 298.7h14.363a6 6 0 0 0 0-12h-14.363a6 6 0 0 0 0 12z"/><path d="m411.137 367.926h14.363a6 6 0 0 0 0-12h-14.363a6 6 0 0 0 0 12z"/><path d="m425.5 418.792h-14.363a6 6 0 0 0 0 12h14.363a6 6 0 0 0 0-12z"/><path d="m38.468 195.538h132.719a26.029 26.029 0 0 0 26-26v-105.575a26.03 26.03 0 0 0 -26-26h-132.719a26.029 26.029 0 0 0 -26 26v105.575a26.029 26.029 0 0 0 26 26zm146.719-131.575v105.575a14.016 14.016 0 0 1 -14 14h-60.36v-133.575h60.36a14.017 14.017 0 0 1 14 14zm-160.719 0a14.016 14.016 0 0 1 14-14h60.359v133.575h-60.359a14.015 14.015 0 0 1 -14-14z"/><path d="m80.916 128.034a6 6 0 0 0 6-6v-10.567a6 6 0 1 0 -12 0v10.567a6 6 0 0 0 6 6z"/><path d="m126.838 128.034a6 6 0 0 0 6-6v-10.567a6 6 0 0 0 -12 0v10.567a6 6 0 0 0 6 6z"/><path d="m332.8 37.963a26.029 26.029 0 0 0 -26 26v105.575a26.029 26.029 0 0 0 26 26h132.714a26.029 26.029 0 0 0 26-26v-105.575a26.029 26.029 0 0 0 -26-26zm-14 131.575v-105.575a14.016 14.016 0 0 1 14-14h60.359v133.575h-60.359a14.015 14.015 0 0 1 -14-14zm160.714-105.575v105.575a14.016 14.016 0 0 1 -14 14h-60.359v-133.575h60.359a14.017 14.017 0 0 1 14 14z"/><path d="m375.022 105.467a6 6 0 0 0 -6 6v10.567a6 6 0 0 0 12 0v-10.567a6 6 0 0 0 -6-6z"/><path d="m420.944 128.034a6 6 0 0 0 6-6v-10.567a6 6 0 0 0 -12 0v10.567a6 6 0 0 0 6 6z"/><path d="m227.8 37.963v77.864l-22.931 41.166-.051.092a7.455 7.455 0 0 0 6.575 10.967h81.916a7.455 7.455 0 0 0 6.577-10.962l-22.986-41.263v-77.864zm12 12h25.1v61.045h-25.1zm-20.668 106.089 18.406-33.044h29.632l18.406 33.044z"/></svg>