<svg id="outline" height="512" viewBox="0 0 512 512" width="512" xmlns="http://www.w3.org/2000/svg"><g><path d="m488 16h-464c-4.418 0-8 3.582-8 8v463.996c0 4.418 3.582 8 8 8h464c4.418 0 8-3.582 8-8v-463.996c0-4.418-3.582-8-8-8zm-456 287.985 16-.031v8.046c0 4.418 3.582 8 8 8s8-3.582 8-8v-8.077l8.454-.016c4.418-.009 7.993-3.597 7.985-8.016-.008-4.413-3.588-7.984-8-7.984-.005 0-.011 0-.016 0l-8.423.016v-7.923c0-4.418-3.582-8-8-8s-8 3.582-8 8v7.954l-16 .031v-191.985h136v16.581c-27.101 3.895-48 27.257-48 55.419 0 4.418 3.582 8 8 8h96c4.418 0 8-3.582 8-8 0-28.162-20.899-51.525-48-55.419v-24.581c0-4.418-3.582-8-8-8h-144v-16h304v383.996h-304zm144-175.985c19.316 0 35.479 13.765 39.196 32h-78.393c3.718-18.235 19.881-32 39.197-32zm304 351.996h-448v-15.996h448zm0-32h-40v-47.996h40zm-68-71.996h40c2.206 0 4 1.794 4 4s-1.794 4-4 4h-40c-2.206 0-4-1.794-4-4s1.794-4 4-4zm-8-16c-2.206 0-4-1.794-4-4s1.794-4 4-4h40c2.206 0 4 1.794 4 4s-1.794 4-4 4zm76-216h-9.376c-3.302-9.311-12.194-16-22.624-16-11.174 0-20.588 7.676-23.248 18.032-5.588 5.917-8.752 13.77-8.752 21.968v136c0 4.418 3.582 8 8 8h9.36c12.484 0 22.64-10.156 22.64-22.64v-114.736c6.807-2.414 12.209-7.816 14.624-14.624h9.376v224h-8.403c.263-1.293.403-2.63.403-4 0-7.104-3.734-13.338-9.331-16.887.847-2.214 1.331-4.605 1.331-7.113 0-11.028-8.972-20-20-20h-40c-11.028 0-20 8.972-20 20 0 7.104 3.734 13.338 9.331 16.887-.847 2.214-1.331 4.605-1.331 7.113 0 1.37.14 2.707.403 4h-.403c-4.418 0-8 3.582-8 8s3.582 8 8 8h32v47.996h-72v-383.996h128zm-24 8c0 4.411-3.589 8-8 8s-8-3.589-8-8 3.589-8 8-8 8 3.589 8 8zm-16 22.624v114.736c0 3.661-2.979 6.64-6.64 6.64h-1.36v-126.131c2.309 2.07 5.02 3.698 8 4.755zm40-126.624h-136-312v-16h448z"/><path d="m376 280c4.418 0 8-3.582 8-8v-32c0-4.418-3.582-8-8-8s-8 3.582-8 8v32c0 4.418 3.582 8 8 8z"/><path d="m312 232c-4.418 0-8 3.582-8 8v32c0 4.418 3.582 8 8 8s8-3.582 8-8v-32c0-4.418-3.582-8-8-8z"/><path d="m144 192c-4.418 0-8 3.582-8 8v16c0 4.418 3.582 8 8 8s8-3.582 8-8v-16c0-4.418-3.582-8-8-8z"/><path d="m208 192c-4.418 0-8 3.582-8 8v16c0 4.418 3.582 8 8 8s8-3.582 8-8v-16c0-4.418-3.582-8-8-8z"/><path d="m176 192c-4.418 0-8 3.582-8 8v16c0 4.418 3.582 8 8 8s8-3.582 8-8v-16c0-4.418-3.582-8-8-8z"/><path d="m144 288c-4.418 0-8 3.582-8 8v16c0 4.418 3.582 8 8 8s8-3.582 8-8v-16c0-4.418-3.582-8-8-8z"/><path d="m208 288c-4.418 0-8 3.582-8 8v16c0 4.418 3.582 8 8 8s8-3.582 8-8v-16c0-4.418-3.582-8-8-8z"/><path d="m176 288c-4.418 0-8 3.582-8 8v16c0 4.418 3.582 8 8 8s8-3.582 8-8v-16c0-4.418-3.582-8-8-8z"/><path d="m144 240c-4.418 0-8 3.582-8 8v16c0 4.418 3.582 8 8 8s8-3.582 8-8v-16c0-4.418-3.582-8-8-8z"/><path d="m208 240c-4.418 0-8 3.582-8 8v16c0 4.418 3.582 8 8 8s8-3.582 8-8v-16c0-4.418-3.582-8-8-8z"/><path d="m176 240c-4.418 0-8 3.582-8 8v16c0 4.418 3.582 8 8 8s8-3.582 8-8v-16c0-4.418-3.582-8-8-8z"/></g></svg>